<svg width="30" height="48" viewBox="0 0 30 48" fill="none" xmlns="http://www.w3.org/2000/svg">
<rect width="48" height="48" rx="10" fill="#E4F3EA"/>
<path d="M31.776 17.375C29.9911 16.1989 27.89 15.595 25.753 15.644C20.333 15.644 14.5 19.026 14.5 26.452V28.452C14.5 32.222 17.305 33.979 19.2 33.979C20.2611 33.9226 21.281 33.5503 22.129 32.91C22.814 32.3825 23.638 32.0663 24.5 32C24.758 32 25.1 32.032 25.5 32.069C27.311 32.236 30.341 32.513 32.4 30.636C33.8 29.363 34.5 27.298 34.5 24.5V22.5C34.5094 21.4863 34.2651 20.4864 33.7894 19.5913C33.3136 18.6962 32.6215 17.9343 31.776 17.375ZM25.753 16.644C29.484 16.644 33.5 18.477 33.5 22.5C33.5 25.005 32.9 26.821 31.723 27.9C29.992 29.481 27.344 29.237 25.589 29.076C25.154 29.036 24.782 29.003 24.5 29.003C23.4494 29.061 22.4399 29.4303 21.6 30.064C20.9066 30.5974 20.0724 30.9164 19.2 30.982C17.708 30.982 15.5 29.543 15.5 26.455C15.5 19.713 20.815 16.644 25.753 16.644ZM31.723 29.9C29.992 31.481 27.344 31.237 25.589 31.076C25.154 31.036 24.782 31.003 24.5 31.003C23.4494 31.061 22.4399 31.4303 21.6 32.064C20.9066 32.5974 20.0724 32.9164 19.2 32.982C18.4317 32.9207 17.6993 32.6314 17.0964 32.1513C16.4935 31.6712 16.0477 31.022 15.816 30.287C16.2304 30.7906 16.7455 31.2021 17.3282 31.4948C17.911 31.7876 18.5486 31.9552 19.2 31.987C20.2611 31.9306 21.281 31.5583 22.129 30.918C22.8131 30.3877 23.6371 30.0686 24.5 30C24.758 30 25.1 30.032 25.5 30.069C27.311 30.236 30.341 30.513 32.4 28.636C32.5882 28.4632 32.7631 28.2763 32.923 28.077C32.6687 28.769 32.258 29.3928 31.723 29.9Z" fill="#3A9B7A"/>
<path d="M19.2001 29.979C19.8474 29.9016 20.4603 29.6453 20.9701 29.239C21.9975 28.4844 23.2264 28.053 24.5001 28C24.8121 28 25.2221 28.034 25.7181 28.08C26.2801 28.131 26.9181 28.189 27.5791 28.189C28.7246 28.2762 29.8649 27.9638 30.8061 27.305C31.8561 26.446 32.3891 24.83 32.3891 22.505C32.3891 19.169 28.9491 17.649 25.7531 17.649C25.161 17.6535 24.5703 17.707 23.9871 17.809H23.9681C20.6591 18.379 16.6111 20.616 16.6111 26.454C16.6111 29.091 18.3891 29.979 19.2001 29.979ZM20.4411 20.322C20.0521 21.377 19.5501 22.753 19.3551 23.343C19.3323 23.4059 19.3223 23.4727 19.3258 23.5394C19.3293 23.6062 19.3461 23.6716 19.3753 23.7317C19.4045 23.7919 19.4454 23.8456 19.4957 23.8896C19.546 23.9337 19.6046 23.9672 19.6681 23.9882C19.7315 24.0092 19.7986 24.0172 19.8652 24.0119C19.9319 24.0065 19.9967 23.9879 20.056 23.957C20.1153 23.9261 20.1678 23.8837 20.2104 23.8321C20.253 23.7806 20.2849 23.7211 20.3041 23.657C20.5821 22.815 21.5371 20.24 21.8041 19.51C22.2635 19.2977 22.7398 19.1241 23.2281 18.991L22.0281 22.331C21.9834 22.4556 21.9898 22.5928 22.0461 22.7125C22.1023 22.8323 22.2037 22.9249 22.3281 22.97C22.3831 22.9905 22.4414 23.0007 22.5001 23C22.603 22.9999 22.7033 22.9681 22.7874 22.9088C22.8715 22.8496 22.9353 22.7659 22.9701 22.669L24.3811 18.753C24.8351 18.6829 25.2937 18.6464 25.7531 18.644C28.4671 18.644 31.3891 19.851 31.3891 22.5C31.3891 24.515 30.9801 25.871 30.1731 26.53C29.408 27.0371 28.4934 27.2694 27.5791 27.189C26.9621 27.189 26.3501 27.133 25.7931 27.083C25.2771 27.035 24.8351 27 24.5001 27C23.039 27.0497 21.6259 27.5336 20.4411 28.39C20.0778 28.6786 19.6533 28.88 19.2001 28.979C19.1841 28.979 17.6111 28.779 17.6111 26.452C17.5446 25.2766 17.7679 24.1029 18.2613 23.034C18.7548 21.9651 19.5033 21.0338 20.4411 20.322Z" fill="#3A9B7A"/>
<path d="M28 25C28.3956 25 28.7822 24.8827 29.1111 24.6629C29.44 24.4432 29.6964 24.1308 29.8478 23.7654C29.9991 23.3999 30.0387 22.9978 29.9616 22.6098C29.8844 22.2219 29.6939 21.8655 29.4142 21.5858C29.1345 21.3061 28.7781 21.1156 28.3902 21.0384C28.0022 20.9613 27.6001 21.0009 27.2346 21.1522C26.8692 21.3036 26.5568 21.56 26.3371 21.8889C26.1173 22.2178 26 22.6044 26 23C26 23.5304 26.2107 24.0391 26.5858 24.4142C26.9609 24.7893 27.4696 25 28 25ZM28 22C28.1978 22 28.3911 22.0587 28.5556 22.1685C28.72 22.2784 28.8482 22.4346 28.9239 22.6173C28.9996 22.8 29.0194 23.0011 28.9808 23.1951C28.9422 23.3891 28.847 23.5673 28.7071 23.7071C28.5673 23.847 28.3891 23.9422 28.1951 23.9808C28.0011 24.0194 27.8 23.9996 27.6173 23.9239C27.4346 23.8482 27.2784 23.72 27.1685 23.5556C27.0586 23.3911 27 23.1978 27 23C27 22.7348 27.1054 22.4804 27.2929 22.2929C27.4804 22.1054 27.7348 22 28 22Z" fill="#3A9B7A"/>
</svg>
