<svg width="48" height="48" viewBox="0 0 48 48" fill="none" xmlns="http://www.w3.org/2000/svg">
<rect width="48" height="48" rx="10" fill="#E4F3EA"/>
<path d="M33.8922 20.224C33.6412 19.619 32.8512 19.257 31.7782 19.257C31.5707 19.2585 31.3635 19.2706 31.1572 19.293C31.7129 18.8887 32.1196 18.3122 32.3142 17.653C32.3627 17.3877 32.3422 17.1143 32.2546 16.8592C32.1671 16.604 32.0154 16.3757 31.8142 16.196C31.6322 15.9942 31.4015 15.8423 31.1442 15.7548C30.8869 15.6673 30.6115 15.6471 30.3442 15.696C29.6853 15.8889 29.1082 16.2934 28.7022 16.847C28.7243 16.6397 28.736 16.4315 28.7372 16.223C28.7372 15.15 28.3762 14.36 27.7702 14.11C27.5443 14.0273 27.2984 14.016 27.0658 14.0777C26.8333 14.1394 26.6254 14.2711 26.4702 14.455C26.3052 14.619 25.8332 15.097 25.6132 17.628C25.1206 17.488 24.5963 17.5065 24.1148 17.6809C23.6333 17.8554 23.2188 18.1769 22.9302 18.6L14.8792 30.1C14.6769 30.3889 14.5829 30.7398 14.6136 31.0911C14.6443 31.4424 14.7979 31.7717 15.0472 32.021L15.9822 32.956C16.2316 33.2054 16.5608 33.3589 16.9121 33.3896C17.2634 33.4203 17.6143 33.3263 17.9032 33.124L29.4032 25.073C29.8269 24.7841 30.1487 24.3688 30.3226 23.8864C30.4966 23.4039 30.514 22.8789 30.3722 22.386C32.0542 22.24 33.1202 21.952 33.5442 21.528C33.7292 21.3728 33.8618 21.1643 33.9241 20.931C33.9864 20.6976 33.9752 20.4508 33.8922 20.224ZM30.5362 16.678C30.6436 16.6597 30.7539 16.671 30.8554 16.7106C30.9569 16.7502 31.0457 16.8168 31.1122 16.903C31.1963 16.9682 31.2612 17.055 31.2999 17.1542C31.3387 17.2533 31.3498 17.3611 31.3322 17.466C31.1772 18.281 29.5322 19.307 28.3522 19.866L28.1362 19.65C28.6932 18.471 29.7182 16.833 30.5362 16.678ZM27.1822 15.161C27.2872 15.061 27.3662 15.022 27.3942 15.033C27.5032 15.078 27.7422 15.44 27.7422 16.222C27.6979 17.0992 27.5495 17.9679 27.3002 18.81L26.7512 18.261C26.7012 18.211 26.6422 18.176 26.5882 18.131C26.7232 16.139 27.0212 15.322 27.1822 15.161ZM17.3302 32.3C17.2339 32.3676 17.1167 32.3991 16.9995 32.3888C16.8822 32.3786 16.7724 32.3273 16.6892 32.244L15.7542 31.309C15.6717 31.2257 15.6211 31.1161 15.6113 30.9993C15.6014 30.8825 15.6329 30.766 15.7002 30.67L17.2072 28.518L19.4822 30.8L17.3302 32.3ZM28.8302 24.248L26.9672 25.548L25.2262 23.806C25.1324 23.7121 25.0052 23.6593 24.8726 23.6593C24.7399 23.6592 24.6126 23.7118 24.5187 23.8055C24.4248 23.8993 24.372 24.0265 24.3719 24.1592C24.3718 24.2919 24.4244 24.4191 24.5182 24.513L26.1362 26.131L23.6362 27.878L21.8502 26.092C21.7559 26.0009 21.6296 25.9506 21.4985 25.9517C21.3674 25.9528 21.242 26.0054 21.1493 26.0981C21.0566 26.1908 21.004 26.3162 21.0029 26.4473C21.0017 26.5784 21.0521 26.7047 21.1432 26.799L22.8092 28.466L20.3092 30.213L17.7872 27.686L21.8632 21.863L23.0302 23.03C23.0763 23.0778 23.1315 23.1159 23.1925 23.1421C23.2535 23.1683 23.3191 23.1821 23.3855 23.1827C23.4519 23.1832 23.5177 23.1706 23.5792 23.1454C23.6406 23.1203 23.6965 23.0832 23.7434 23.0362C23.7903 22.9893 23.8275 22.9335 23.8526 22.872C23.8778 22.8106 23.8904 22.7447 23.8898 22.6783C23.8893 22.6119 23.8755 22.5463 23.8493 22.4853C23.823 22.4243 23.785 22.3692 23.7372 22.323L22.4462 21.031L23.7462 19.168C23.8717 18.9881 24.0354 18.8382 24.2255 18.7287C24.4157 18.6193 24.6276 18.5532 24.8462 18.535C24.8902 18.535 24.9342 18.529 24.9772 18.529C25.3747 18.5291 25.756 18.687 26.0372 18.968L29.0302 21.961C29.0643 21.9987 29.0961 22.0384 29.1252 22.08C29.1534 22.1763 29.2107 22.2616 29.2892 22.324C29.464 22.6452 29.5137 23.0197 29.4287 23.3753C29.3438 23.7309 29.1302 24.0425 28.8292 24.25L28.8302 24.248ZM32.8382 20.816C32.6752 20.978 31.8562 21.276 29.8692 21.416C29.8242 21.362 29.7882 21.303 29.7382 21.253L29.1892 20.704C30.0309 20.4521 30.8998 20.3017 31.7772 20.256C32.5592 20.256 32.9212 20.496 32.9672 20.605C32.9782 20.631 32.9442 20.712 32.8392 20.818L32.8382 20.816Z" fill="#3A9B7A"/>
</svg>
