<svg width="48" height="48" viewBox="0 0 48 48" fill="none" xmlns="http://www.w3.org/2000/svg">
<rect width="48" height="48" rx="10" fill="#FFECE8"/>
<path d="M33.9999 23.75C33.9979 23.3115 33.9715 22.8735 33.9209 22.438C33.9057 22.3164 33.8464 22.2046 33.7542 22.1238C33.6621 22.0431 33.5434 21.999 33.4209 22H32.9999V19.5C32.9973 18.9791 32.8321 18.4721 32.5273 18.0497C32.2225 17.6273 31.7934 17.3106 31.2999 17.144L32.4999 15.268C32.5565 15.1793 32.5837 15.075 32.5776 14.97C32.5715 14.865 32.5324 14.7646 32.466 14.6831C32.3995 14.6016 32.309 14.5431 32.2074 14.5159C32.1058 14.4888 31.9982 14.4944 31.8999 14.532L29.6529 15.381L28.4349 13.252C28.3875 13.18 28.3229 13.1209 28.247 13.08C28.171 13.0391 28.0861 13.0177 27.9999 13.0177C27.9137 13.0177 27.8288 13.0391 27.7529 13.08C27.677 13.1209 27.6124 13.18 27.5649 13.252L26.3509 15.381L24.0999 14.532C24.0017 14.4944 23.8941 14.4888 23.7924 14.5159C23.6908 14.5431 23.6003 14.6016 23.5339 14.6831C23.4674 14.7646 23.4284 14.865 23.4223 14.97C23.4162 15.075 23.4433 15.1793 23.4999 15.268L24.6999 17.144C24.2199 17.3063 23.8009 17.6112 23.4986 18.0178C23.1963 18.4244 23.0251 18.9136 23.0079 19.42V19.446C23.0079 19.464 23.0029 19.481 23.0029 19.5V22H16.0749C15.9524 21.999 15.8338 22.0431 15.7416 22.1238C15.6494 22.2046 15.5901 22.3164 15.5749 22.438C15.5257 22.8736 15.5006 23.3116 15.4999 23.75C15.5047 24.3036 15.5586 24.8558 15.6609 25.4C15.1458 25.6037 14.7081 25.9646 14.4099 26.4313C14.1117 26.8981 13.9682 27.447 13.9999 28C13.9999 29.583 14.7059 32.673 16.4079 32.991C16.4685 33.0028 16.5302 33.0088 16.5919 33.009C16.8875 32.9873 17.1722 32.8887 17.4179 32.723C17.591 32.6025 17.7907 32.526 17.9999 32.5C18.2058 32.5329 18.4026 32.6081 18.5779 32.721C18.8725 32.9187 19.2237 33.0146 19.5779 32.994C19.8409 32.9439 20.0913 32.842 20.3145 32.6942C20.5377 32.5463 20.7292 32.3556 20.8779 32.133C22.0908 32.6981 23.4118 32.9939 24.7499 33C24.9499 33 25.1499 32.982 25.3499 32.97C25.3981 32.9874 25.4487 32.9975 25.4999 33H30.4999C31.163 33 31.7988 32.7366 32.2677 32.2677C32.7365 31.7989 32.9999 31.163 32.9999 30.5V27.911C33.6561 26.622 33.9987 25.1963 33.9999 23.75ZM31.9999 19.5V20.587L27.9489 18H30.4999C30.8977 18 31.2793 18.158 31.5606 18.4393C31.8419 18.7206 31.9999 19.1021 31.9999 19.5ZM26.3999 16.468C26.5114 16.5103 26.6343 16.5114 26.7466 16.4711C26.8588 16.4307 26.9529 16.3516 27.0119 16.248L27.9999 14.509L28.9919 16.248C29.0509 16.3516 29.145 16.4307 29.2573 16.4711C29.3695 16.5114 29.4924 16.5103 29.6039 16.468L30.8469 16L30.2099 17H25.7899L25.1529 16L26.3999 16.468ZM25.4999 18H26.0899L31.9999 21.774V22H28.6379L24.0269 19.233C24.0894 18.8876 24.271 18.575 24.5402 18.3497C24.8093 18.1245 25.1489 18.0007 25.4999 18ZM23.9999 20.383L26.6999 22H23.9999V20.383ZM19.4309 32.005C19.295 31.9661 19.1648 31.9093 19.0439 31.836C18.7289 31.6397 18.3703 31.5243 17.9999 31.5C17.6178 31.5184 17.2478 31.6397 16.9289 31.851C16.8244 31.918 16.7114 31.9708 16.5929 32.008C15.6839 31.838 14.9999 29.459 14.9999 28C14.9999 27.211 15.2859 26.2 17.4129 26.033C17.4135 26.3843 17.447 26.7348 17.5129 27.08C17.5375 27.1909 17.5991 27.2902 17.6876 27.3615C17.7761 27.4327 17.8863 27.4717 17.9999 27.472C18.0356 27.4719 18.0711 27.4679 18.1059 27.46C18.2352 27.4319 18.3482 27.3538 18.4199 27.2426C18.4917 27.1314 18.5165 26.9964 18.4889 26.867C18.4402 26.5883 18.4155 26.3059 18.4149 26.023C20.6999 26.142 20.9999 27.191 20.9999 28C20.9999 29.568 20.3999 31.851 19.4309 32.005ZM21.3649 31.259C21.4947 30.9486 21.6013 30.6291 21.6839 30.303C22.725 30.7969 23.8692 31.0345 25.0208 30.9958C26.1725 30.9572 27.2982 30.6434 28.3037 30.0807C29.3093 29.518 30.1656 28.7227 30.801 27.7614C31.4363 26.8001 31.8324 25.7006 31.9559 24.555C31.9636 24.4895 31.9582 24.4232 31.9402 24.3599C31.9221 24.2965 31.8917 24.2374 31.8508 24.1858C31.8098 24.1342 31.759 24.0913 31.7014 24.0594C31.6437 24.0275 31.5804 24.0073 31.5149 24C31.4494 23.9915 31.3828 23.9963 31.3192 24.0141C31.2556 24.0319 31.1962 24.0623 31.1446 24.1036C31.093 24.1448 31.0502 24.196 31.0188 24.2542C30.9874 24.3123 30.9681 24.3762 30.9619 24.442C30.8526 25.4499 30.4991 26.4159 29.932 27.2562C29.3649 28.0966 28.6014 28.786 27.7077 29.2646C26.8139 29.7432 25.817 29.9965 24.8032 30.0027C23.7894 30.0089 22.7894 29.7676 21.8899 29.3C21.9575 28.8698 21.9942 28.4354 21.9999 28C21.9999 26.706 21.3759 25.178 18.5119 25.016C18.5517 24.8116 18.6085 24.6108 18.6819 24.416C18.7271 24.293 18.7222 24.1572 18.6683 24.0377C18.6144 23.9183 18.5158 23.8248 18.3936 23.7774C18.2715 23.7299 18.1356 23.7323 18.0152 23.7841C17.8948 23.8358 17.7996 23.9327 17.7499 24.054C17.6323 24.3654 17.5468 24.6881 17.4949 25.017C17.2037 25.0318 16.9138 25.0652 16.6269 25.117C16.5466 24.6656 16.5041 24.2084 16.4999 23.75C16.4999 23.529 16.5119 23.255 16.5289 23H32.9709C32.9879 23.255 32.9999 23.529 32.9999 23.75C33.0045 25.129 32.6622 26.4871 32.0044 27.6992C31.3467 28.9113 30.3947 29.9385 29.2359 30.6863C28.0772 31.4342 26.749 31.8785 25.3736 31.9786C23.9982 32.0787 22.6197 31.8312 21.3649 31.259ZM31.9999 30.5C31.9999 30.8978 31.8419 31.2793 31.5606 31.5606C31.2793 31.8419 30.8977 32 30.4999 32H28.9109C30.1111 31.3925 31.165 30.5316 31.9999 29.477V30.5Z" fill="#FE6E4C"/>
<path d="M28.5 24C28.3674 24 28.2402 24.0527 28.1464 24.1464C28.0527 24.2402 28 24.3674 28 24.5V25.5C28 25.6326 28.0527 25.7598 28.1464 25.8536C28.2402 25.9473 28.3674 26 28.5 26C28.6326 26 28.7598 25.9473 28.8536 25.8536C28.9473 25.7598 29 25.6326 29 25.5V24.5C29 24.3674 28.9473 24.2402 28.8536 24.1464C28.7598 24.0527 28.6326 24 28.5 24Z" fill="#FE6E4C"/>
<path d="M22.5 24C22.3674 24 22.2402 24.0527 22.1464 24.1464C22.0527 24.2402 22 24.3674 22 24.5V25.5C22 25.6326 22.0527 25.7598 22.1464 25.8536C22.2402 25.9473 22.3674 26 22.5 26C22.6326 26 22.7598 25.9473 22.8536 25.8536C22.9473 25.7598 23 25.6326 23 25.5V24.5C23 24.3674 22.9473 24.2402 22.8536 24.1464C22.7598 24.0527 22.6326 24 22.5 24Z" fill="#FE6E4C"/>
<path d="M25.5 25C25.3674 25 25.2402 25.0527 25.1464 25.1464C25.0527 25.2402 25 25.3674 25 25.5V26.5C25 26.6326 25.0527 26.7598 25.1464 26.8536C25.2402 26.9473 25.3674 27 25.5 27C25.6326 27 25.7598 26.9473 25.8536 26.8536C25.9473 26.7598 26 26.6326 26 26.5V25.5C26 25.3674 25.9473 25.2402 25.8536 25.1464C25.7598 25.0527 25.6326 25 25.5 25Z" fill="#FE6E4C"/>
</svg>
