<svg width="48" height="48" viewBox="0 0 48 48" fill="none" xmlns="http://www.w3.org/2000/svg">
<rect width="48" height="48" rx="10" fill="#FFF6E4"/>
<path d="M33.9999 25.5C33.9986 25.1909 33.9019 24.8897 33.7229 24.6377C33.5439 24.3856 33.2914 24.195 32.9999 24.092V19.5C32.9986 18.3069 32.5241 17.1631 31.6804 16.3195C30.8368 15.4759 29.693 15.0013 28.4999 15H19.4999C18.3068 15.0013 17.163 15.4759 16.3194 16.3195C15.4758 17.1631 15.0012 18.3069 14.9999 19.5V24.092C14.673 24.205 14.3954 24.428 14.2148 24.723C14.0341 25.0179 13.9616 25.3665 14.0095 25.7091C14.0575 26.0516 14.223 26.3669 14.4777 26.6009C14.7324 26.8349 15.0605 26.9732 15.4059 26.992L17.0189 32.639C17.0491 32.7432 17.1123 32.8348 17.1991 32.8999C17.2858 32.965 17.3914 33.0002 17.4999 33H22.2889C22.3885 32.9999 22.4857 32.97 22.5682 32.9142C22.6507 32.8585 22.7147 32.7793 22.7519 32.687L23.8369 30H24.1519L25.1459 32.674C25.1814 32.7697 25.2454 32.8523 25.3293 32.9106C25.4131 32.9688 25.5128 33.0001 25.6149 33H30.4999C30.6087 33 30.7144 32.9646 30.8012 32.8991C30.888 32.8336 30.9511 32.7416 30.9809 32.637L32.5939 26.99C32.9735 26.9662 33.3299 26.799 33.5909 26.5224C33.8519 26.2458 33.9981 25.8803 33.9999 25.5ZM15.9999 19.5C15.9999 18.5717 16.3687 17.6815 17.025 17.0251C17.6814 16.3687 18.5717 16 19.4999 16H28.4999C29.4282 16 30.3184 16.3687 30.9748 17.0251C31.6312 17.6815 31.9999 18.5717 31.9999 19.5V24H31.9839C31.9672 22.8851 31.6252 21.7993 30.9999 20.876V19.5C30.9999 18.837 30.7365 18.2011 30.2677 17.7322C29.7988 17.2634 29.163 17 28.4999 17H19.4999C18.8369 17 18.201 17.2634 17.7321 17.7322C17.2633 18.2011 16.9999 18.837 16.9999 19.5V20.876C16.3746 21.7993 16.0326 22.8851 16.0159 24H15.9999V19.5ZM19.4999 20.429C20.8299 20.429 21.9109 22.014 21.9859 24H17.0139C17.0889 22.014 18.1699 20.429 19.4999 20.429ZM22.9839 24C22.8999 21.463 21.3759 19.429 19.4999 19.429C18.9636 19.4379 18.4418 19.6048 17.9999 19.909V19.5C17.9999 19.1022 18.158 18.7206 18.4393 18.4393C18.7206 18.158 19.1021 18 19.4999 18H28.4999C28.8977 18 29.2793 18.158 29.5606 18.4393C29.8419 18.7206 29.9999 19.1022 29.9999 19.5V19.909C29.5581 19.6048 29.0363 19.4379 28.4999 19.429C26.6239 19.429 25.0999 21.463 25.0159 24H22.9839ZM28.4999 20.429C29.8299 20.429 30.9109 22.014 30.9859 24H26.0139C26.0889 22.014 27.1699 20.429 28.4999 20.429ZM30.1229 32H25.9629L24.9689 29.326C24.9334 29.2303 24.8694 29.1477 24.7855 29.0894C24.7017 29.0312 24.602 28.9999 24.4999 29H23.4999C23.4002 28.9999 23.3027 29.0297 23.22 29.0855C23.1373 29.1413 23.0732 29.2205 23.0359 29.313L21.9509 32H17.8769L16.4489 27H31.5489L30.1229 32ZM32.4999 26H15.4999C15.3673 26 15.2401 25.9473 15.1464 25.8536C15.0526 25.7598 14.9999 25.6326 14.9999 25.5C14.9999 25.3674 15.0526 25.2402 15.1464 25.1464C15.2401 25.0527 15.3673 25 15.4999 25H32.4999C32.6325 25 32.7597 25.0527 32.8535 25.1464C32.9472 25.2402 32.9999 25.3674 32.9999 25.5C32.9999 25.6326 32.9472 25.7598 32.8535 25.8536C32.7597 25.9473 32.6325 26 32.4999 26Z" fill="#FFC120"/>
</svg>
