<svg width="4" height="14" viewBox="0 0 4 14" fill="none" xmlns="http://www.w3.org/2000/svg">
<path fill-rule="evenodd" clip-rule="evenodd" d="M1.99992 2.33333C2.64425 2.33333 3.16658 1.811 3.16658 1.16667C3.16658 0.522334 2.64425 0 1.99992 0C1.35559 0 0.833252 0.522334 0.833252 1.16667C0.833252 1.811 1.35559 2.33333 1.99992 2.33333ZM1.99992 8.16667C2.64425 8.16667 3.16658 7.64433 3.16658 7C3.16658 6.35567 2.64425 5.83333 1.99992 5.83333C1.35559 5.83333 0.833252 6.35567 0.833252 7C0.833252 7.64433 1.35559 8.16667 1.99992 8.16667ZM3.16658 12.8333C3.16658 13.4777 2.64425 14 1.99992 14C1.35559 14 0.833252 13.4777 0.833252 12.8333C0.833252 12.189 1.35559 11.6667 1.99992 11.6667C2.64425 11.6667 3.16658 12.189 3.16658 12.8333Z" fill="#838589"/>
</svg>
